<svg xmlns="http://www.w3.org/2000/svg" viewBox="0 0 200 200" width="100%" height="100%">
  <circle cx="100" cy="100" r="90" fill="#dcf2fd" />

  <path d="M 75 42 Q 78 48 84 50 Q 78 52 75 58 Q 72 52 66 50 Q 72 48 75 42 Z" fill="#b983e8" />
  <path d="M 120 40 Q 122 44 126 45 Q 122 46 120 50 Q 118 46 114 45 Q 118 44 120 40 Z" fill="#69a1e0" />
  <path d="M 135 78 Q 137 82 141 83 Q 137 84 135 88 Q 133 84 129 83 Q 133 82 135 78 Z" fill="#fecf33" />

  <path d="M 62 82 Q 70 85 75 90" fill="none" stroke="#1a5065" stroke-width="2.5" stroke-linecap="round" />
  <path d="M 72 68 Q 75 75 78 78" fill="none" stroke="#1a5065" stroke-width="2.5" stroke-linecap="round" />
  <path d="M 140 72 Q 130 75 125 80" fill="none" stroke="#1a5065" stroke-width="2.5" stroke-linecap="round" />
  <path d="M 125 65 Q 122 70 120 75" fill="none" stroke="#1a5065" stroke-width="2.5" stroke-linecap="round" />

  <circle cx="72" cy="70" r="12" fill="#f26f55" stroke="#b03e28" stroke-width="1.5" />
  <circle cx="72" cy="70" r="8" fill="none" stroke="#fcd6ce" stroke-width="1" stroke-dasharray="2 2" />
  
  <circle cx="128" cy="62" r="12" fill="#6c7cd6" stroke="#3b4891" stroke-width="1.5" />
  <circle cx="128" cy="62" r="8" fill="none" stroke="#c4cbef" stroke-width="1" stroke-dasharray="2 2" />

  <circle cx="85" cy="95" r="14" fill="#f89a3c" stroke="#b56314" stroke-width="1.5" />
  <polygon points="85,86 87.5,91 93,92 89,96 90,101 85,98.5 80,101 81,96 77,92 82.5,91" fill="#fcdb9c" />

  <circle cx="118" cy="95" r="12" fill="#a46cf2" stroke="#6833ad" stroke-width="1.5" />
  <circle cx="118" cy="95" r="5" fill="#e8d5fc" />

  <circle cx="102" cy="72" r="18" fill="#fecf33" stroke="#c48a14" stroke-width="2" />
  <circle cx="102" cy="72" r="14" fill="none" stroke="#fce69a" stroke-width="1.5" />
  <path d="M 96 68 Q 98 66 100 68" fill="none" stroke="#a36608" stroke-width="1.8" stroke-linecap="round" />
  <path d="M 106 68 Q 108 66 110 68" fill="none" stroke="#a36608" stroke-width="1.8" stroke-linecap="round" />
  <path d="M 95 73 Q 103 80 111 73" fill="none" stroke="#a36608" stroke-width="2" stroke-linecap="round" />

  <rect x="65" y="95" width="70" height="50" rx="6" fill="#449eb6" stroke="#1a5065" stroke-width="3" />
  <line x1="72" y1="105" x2="72" y2="135" stroke="#90d5e8" stroke-width="2.5" stroke-linecap="round" />
  
  <path d="M 135 115 L 142 115 A 8 8 0 0 1 150 123 L 150 125 A 8 8 0 0 1 142 133 L 135 133 Z" fill="#449eb6" stroke="#1a5065" stroke-width="3" stroke-linejoin="round" />
  
  <circle cx="140" cy="124" r="3.5" fill="#fecf33" stroke="#c48a14" stroke-width="1.5" />
</svg>